<mxfile host="app.diagrams.net" modified="2024-06-03T02:39:35.659Z" agent="Mozilla/5.0 (Windows NT 10.0; Win64; x64) AppleWebKit/537.36 (KHTML, like Gecko) Chrome/123.0.0.0 Safari/537.36" version="24.4.8" etag="dkmHhgJMTTMu_b42l76N" type="github">
  <diagram name="Page-1" id="J72CDql8UuPRi6VPP_Eg">
    <mxGraphModel>
      <root>
        <mxCell id="0" />
        <mxCell id="1" parent="0" />
      </root>
    </mxGraphModel>
  </diagram>
</mxfile>
